<svg width="8" height="8" viewBox="0 0 8 8" fill="none" xmlns="http://www.w3.org/2000/svg">
<path d="M6.6873 5.31888L7.61823 6.24981C7.82908 6.46065 7.82908 6.8025 7.61823 7.01335C6.4783 8.15328 4.67363 8.28154 3.38394 7.31427L3.30876 7.25788C2.33593 6.52826 1.47174 5.66407 0.742116 4.69124L0.685729 4.61606C-0.281535 3.32637 -0.153282 1.5217 0.98665 0.381771C1.1975 0.170925 1.53935 0.170924 1.75019 0.381771L2.68112 1.3127C3.00257 1.63415 3.00257 2.15532 2.68112 2.47677L2.07918 3.07872C1.9376 3.2203 1.9025 3.43658 1.99204 3.61566C2.50966 4.65091 3.34909 5.49034 4.38434 6.00796C4.56342 6.0975 4.77971 6.0624 4.92128 5.92082L5.52323 5.31888C5.84468 4.99743 6.36585 4.99743 6.6873 5.31888Z" fill="#80BB00"/>
</svg>
