<svg width="221" height="38" viewBox="0 0 221 38" fill="none" xmlns="http://www.w3.org/2000/svg">
<g clip-path="url(#clip0_142_29)">
<path d="M97.2044 1.64486C97.1303 1.6507 97.0613 1.68478 97.0116 1.74007C96.962 1.79536 96.9355 1.8676 96.9376 1.94186V15.2C96.9356 15.2734 96.9622 15.3448 97.0121 15.3989C97.0619 15.4529 97.1309 15.4854 97.2044 15.4894L98.8049 15.6264V16.6316H93.3936V15.7559C93.3936 15.7188 93.4078 15.6831 93.4334 15.6562C93.4589 15.6292 93.4938 15.6131 93.5309 15.6112L94.9941 15.4894C95.0676 15.4854 95.1366 15.4529 95.1864 15.3989C95.2363 15.3448 95.263 15.2734 95.2609 15.2V1.94186C95.2631 1.8676 95.2367 1.79536 95.187 1.74007C95.1373 1.68478 95.0683 1.6507 94.9941 1.64486L93.5309 1.52302C93.5122 1.52305 93.4937 1.51927 93.4765 1.51191C93.4594 1.50455 93.4439 1.49376 93.431 1.48022C93.4182 1.46667 93.4083 1.45065 93.4018 1.43313C93.3954 1.41561 93.3926 1.39696 93.3936 1.37833V0.510193H98.7745V1.49256L97.2044 1.64486Z" fill="#726B6B"/>
<path d="M113.408 8.6585V15.2609C113.405 15.3352 113.432 15.4074 113.482 15.4627C113.531 15.518 113.6 15.5521 113.674 15.5579L115.267 15.6874V16.6393H112.059C112.038 16.6404 112.018 16.6372 111.999 16.6299C111.98 16.6226 111.963 16.6115 111.948 16.5971C111.934 16.5827 111.923 16.5655 111.915 16.5465C111.908 16.5275 111.905 16.5072 111.906 16.487V8.87173C111.906 6.78515 110.839 5.98556 109.315 5.98556C107.733 6.08638 106.209 6.61264 104.902 7.5086V15.2381C104.9 15.3135 104.928 15.3869 104.979 15.4424C105.03 15.4978 105.101 15.5311 105.176 15.5351L106.8 15.6645V16.6164H101.777V15.794C101.777 15.7569 101.791 15.7212 101.817 15.6943C101.842 15.6673 101.877 15.6512 101.914 15.6493L103.18 15.5427C103.254 15.5368 103.323 15.5027 103.372 15.4475C103.422 15.3922 103.448 15.3199 103.446 15.2457V6.44247C103.448 6.40421 103.443 6.36592 103.429 6.32996C103.416 6.294 103.396 6.26111 103.369 6.23331C103.343 6.20551 103.311 6.18339 103.276 6.16828C103.241 6.15318 103.203 6.14542 103.164 6.14548L101.777 6.06171V5.14027L104.78 4.98035C104.801 4.9781 104.822 4.98043 104.842 4.98718C104.862 4.99393 104.88 5.00493 104.895 5.01943C104.911 5.03392 104.923 5.05156 104.93 5.07112C104.938 5.09067 104.941 5.11167 104.94 5.13265V6.61762C106.415 5.59577 108.141 4.99545 109.932 4.88135C111.929 4.89658 113.408 6.06171 113.408 8.6585Z" fill="#726B6B"/>
<path d="M127.629 6.1836L123.46 16.6393H121.997L117.95 6.32067C117.933 6.27622 117.904 6.23723 117.866 6.20776C117.829 6.17829 117.784 6.15943 117.737 6.15314L116.974 6.07698C116.937 6.07503 116.902 6.05893 116.877 6.032C116.851 6.00508 116.837 5.96938 116.837 5.93229V5.11746H119.063L122.828 15.0173L126.174 6.64051C126.196 6.59231 126.207 6.53915 126.204 6.48587C126.201 6.43259 126.185 6.38089 126.157 6.33548C126.129 6.29006 126.09 6.25237 126.043 6.22585C125.997 6.19932 125.945 6.18479 125.892 6.1836L124.367 6.06175C124.33 6.0598 124.295 6.0437 124.27 6.01677C124.244 5.98985 124.23 5.95415 124.23 5.91706V5.10223H128.872V6.06175L127.629 6.1836Z" fill="#726B6B"/>
<path d="M141.051 10.6308V10.8821C141.053 10.909 141.049 10.9361 141.04 10.9615C141.031 10.987 141.017 11.0102 140.998 11.0296C140.979 11.049 140.957 11.0643 140.932 11.0743C140.906 11.0843 140.88 11.0889 140.853 11.0877L132.179 11.1944C132.256 14.0196 133.848 15.7635 136.181 15.7635C137.576 15.786 138.925 15.2611 139.938 14.3014L140.471 15.2761C139.288 16.361 137.724 16.9357 136.12 16.8753C132.766 16.8753 130.617 14.4004 130.617 10.8821C130.617 7.3639 132.69 4.89656 135.952 4.89656C139.488 4.88895 140.982 7.18113 141.051 10.6308ZM132.179 10.212H139.336C139.359 10.2113 139.382 10.2056 139.403 10.1953C139.423 10.1849 139.442 10.1702 139.456 10.152C139.471 10.1339 139.481 10.1129 139.487 10.0904C139.492 10.0678 139.493 10.0444 139.488 10.0216C139.359 7.47051 138.307 5.95508 135.944 5.95508C133.787 5.94747 132.309 7.53905 132.179 10.2044V10.212Z" fill="#726B6B"/>
<path d="M147.918 4.88135C148.842 4.85908 149.758 5.06299 150.585 5.47533C150.606 5.48567 150.624 5.50197 150.636 5.52225C150.649 5.54254 150.655 5.56592 150.654 5.58956V8.14066H149.831L149.686 6.37393C149.683 6.32563 149.667 6.27911 149.638 6.23994C149.61 6.20076 149.571 6.17061 149.526 6.15309C149.042 5.95581 148.524 5.8599 148.001 5.87133C146.256 5.87133 145.166 6.63285 145.166 7.64567C145.166 8.6585 145.425 9.0088 147.681 10.1282C150.478 11.5218 151.073 12.2224 151.073 13.5856C151.073 15.6341 149.114 16.8449 146.409 16.8449C145.406 16.8463 144.412 16.6549 143.482 16.2813C143.455 16.2719 143.432 16.2543 143.416 16.2312C143.399 16.208 143.39 16.1803 143.39 16.1519V13.6769H144.214L144.351 15.3675C144.355 15.4184 144.374 15.4669 144.405 15.5074C144.436 15.5479 144.478 15.5787 144.526 15.596C145.144 15.8059 145.794 15.909 146.447 15.9006C148.375 15.9006 149.625 15.0553 149.625 13.7455C149.625 12.7707 149.32 12.4052 147.133 11.3162C144.038 9.79317 143.672 9.19918 143.672 7.74467C143.672 6.02363 145.509 4.91942 147.933 4.91181L147.918 4.88135Z" fill="#726B6B"/>
<path d="M159.319 5.11744V6.06173L156.149 6.22927V14.3395C156.129 14.5477 156.156 14.7577 156.229 14.954C156.301 15.1504 156.416 15.3281 156.566 15.4742C156.716 15.6202 156.896 15.7309 157.094 15.7981C157.293 15.8653 157.503 15.8873 157.711 15.8625C158.005 15.8828 158.3 15.8277 158.566 15.7025C158.833 15.5772 159.064 15.3859 159.236 15.1467L159.723 15.8321C159.461 16.2021 159.106 16.4972 158.694 16.6882C158.283 16.8792 157.828 16.9595 157.376 16.9211C155.722 16.9211 154.67 16.0148 154.67 14.5603V6.22165L153.314 6.15312C153.277 6.15116 153.242 6.13506 153.216 6.10813C153.191 6.08121 153.176 6.04552 153.176 6.00843V5.16313H154.701V2.25412L156.225 2.17035V5.11744H159.319Z" fill="#726B6B"/>
<path d="M178.426 4.89658C180.355 4.89658 181.749 6.0541 181.749 8.65851V15.2609C181.747 15.3352 181.774 15.4074 181.823 15.4627C181.873 15.518 181.942 15.5521 182.016 15.5579L183.617 15.6874V16.6393H180.4C180.381 16.6393 180.361 16.6353 180.343 16.6276C180.325 16.6198 180.309 16.6085 180.295 16.5942C180.282 16.58 180.271 16.5631 180.264 16.5447C180.257 16.5262 180.255 16.5066 180.256 16.487V8.87173C180.256 6.78516 179.257 5.98556 177.832 5.98556C176.293 6.10808 174.821 6.66536 173.587 7.59238C173.686 8.03714 173.732 8.4922 173.724 8.94789V15.2381C173.722 15.3123 173.748 15.3846 173.798 15.4399C173.848 15.4951 173.917 15.5292 173.991 15.5351L175.591 15.6645V16.6164H172.375C172.335 16.6164 172.296 16.6004 172.267 16.5718C172.239 16.5433 172.223 16.5045 172.223 16.4641V8.84889C172.223 6.76231 171.232 5.96272 169.807 5.96272C168.32 6.07845 166.895 6.60586 165.691 7.48576V15.2228C165.689 15.2983 165.716 15.3716 165.768 15.4271C165.819 15.4826 165.89 15.5159 165.965 15.5198L167.589 15.6493V16.6012H162.528V15.7787C162.528 15.7417 162.542 15.706 162.568 15.679C162.593 15.6521 162.628 15.636 162.665 15.6341L163.93 15.5198C163.967 15.5189 164.003 15.5106 164.037 15.4954C164.07 15.4802 164.1 15.4585 164.125 15.4315C164.15 15.4045 164.169 15.3728 164.181 15.3383C164.194 15.3037 164.199 15.2671 164.197 15.2305V6.44248C164.199 6.40421 164.193 6.36593 164.18 6.32997C164.167 6.294 164.146 6.26112 164.12 6.23332C164.094 6.20552 164.062 6.18339 164.027 6.16829C163.991 6.15319 163.953 6.14543 163.915 6.14548L162.528 6.06933V5.14789L165.531 4.99558C165.552 4.99333 165.573 4.99566 165.593 5.00241C165.613 5.00916 165.631 5.02017 165.646 5.03467C165.661 5.04916 165.673 5.0668 165.681 5.08635C165.689 5.1059 165.692 5.1269 165.691 5.14789V6.62524C167.066 5.61642 168.699 5.01711 170.401 4.89658C171.052 4.84295 171.702 5.00378 172.253 5.35447C172.803 5.70516 173.224 6.22641 173.45 6.83847C174.889 5.71447 176.628 5.03907 178.449 4.89658H178.426Z" fill="#726B6B"/>
<path d="M196.398 10.6308V10.8821C196.4 10.909 196.396 10.9361 196.387 10.9615C196.378 10.987 196.364 11.0102 196.345 11.0296C196.327 11.049 196.304 11.0643 196.279 11.0743C196.254 11.0843 196.227 11.0889 196.2 11.0877L187.526 11.1944C187.603 14.0196 189.196 15.7635 191.528 15.7635C192.923 15.786 194.272 15.2611 195.285 14.3014L195.811 15.2761C194.63 16.3591 193.069 16.9337 191.467 16.8753C188.113 16.8753 185.964 14.4004 185.964 10.8821C185.964 7.3639 188.037 4.89656 191.299 4.89656C194.835 4.88895 196.329 7.18113 196.398 10.6308ZM187.526 10.212H194.683C194.706 10.2113 194.729 10.2056 194.75 10.1953C194.771 10.1849 194.789 10.1702 194.803 10.152C194.818 10.1339 194.828 10.1129 194.834 10.0904C194.839 10.0678 194.84 10.0444 194.835 10.0216C194.706 7.47051 193.654 5.95508 191.291 5.95508C189.119 5.94747 187.656 7.53905 187.526 10.2044V10.212Z" fill="#726B6B"/>
<path d="M207.007 4.89661C209.042 4.89661 210.513 6.05412 210.513 8.65853V15.2609C210.511 15.3352 210.537 15.4074 210.587 15.4627C210.636 15.518 210.706 15.5521 210.78 15.5579L212.38 15.6874V16.6393H209.164C209.144 16.6393 209.125 16.6353 209.107 16.6276C209.089 16.6199 209.072 16.6085 209.059 16.5943C209.045 16.58 209.035 16.5631 209.028 16.5447C209.021 16.5263 209.018 16.5066 209.019 16.487V8.87176C209.019 6.78518 207.952 5.98558 206.42 5.98558C204.841 6.08627 203.319 6.6126 202.015 7.50863V15.2381C202.013 15.3123 202.039 15.3846 202.089 15.4399C202.139 15.4952 202.208 15.5293 202.282 15.5351L203.905 15.6645V16.6164H198.852V15.794C198.852 15.7581 198.865 15.7235 198.889 15.6967C198.913 15.67 198.946 15.6531 198.982 15.6493L200.247 15.5427C200.322 15.5388 200.393 15.5055 200.444 15.45C200.496 15.3945 200.523 15.3212 200.521 15.2457V6.4425C200.522 6.40449 200.516 6.36666 200.502 6.33116C200.488 6.29567 200.468 6.2632 200.442 6.23562C200.416 6.20804 200.384 6.18588 200.349 6.17042C200.315 6.15496 200.277 6.14649 200.239 6.14551L198.852 6.07697V5.15552L201.855 4.99561C201.876 4.99336 201.897 4.99569 201.917 5.00244C201.937 5.00919 201.955 5.02019 201.97 5.03469C201.985 5.04918 201.997 5.06682 202.005 5.08638C202.013 5.10593 202.016 5.12693 202.015 5.14791V6.63288C203.489 5.60999 205.216 5.00957 207.007 4.89661Z" fill="#726B6B"/>
<path d="M220.611 5.11744V6.06173L217.448 6.22927V14.3395C217.43 14.5481 217.458 14.7582 217.531 14.9545C217.604 15.1508 217.72 15.3284 217.871 15.4743C218.021 15.6201 218.202 15.7307 218.401 15.7979C218.599 15.865 218.81 15.8871 219.018 15.8625C219.313 15.8843 219.608 15.8299 219.875 15.7045C220.142 15.5791 220.372 15.387 220.543 15.1467L221.038 15.8321C220.774 16.2027 220.418 16.4982 220.005 16.6892C219.592 16.8801 219.137 16.9601 218.683 16.9211C217.029 16.9211 215.985 16.0148 215.985 14.5603V6.22165L214.628 6.15312C214.591 6.15127 214.555 6.13543 214.528 6.10869C214.501 6.08194 214.485 6.0462 214.484 6.00843V5.16313H216.008V2.25412L217.532 2.17035V5.11744H220.611Z" fill="#726B6B"/>
<path d="M100.466 20.7667C103.439 20.7667 105.382 22.404 105.382 24.8256C105.402 25.5817 105.182 26.3248 104.756 26.9494C104.329 27.5741 103.716 28.0486 103.004 28.3058C103.931 28.5123 104.759 29.0317 105.347 29.7766C105.936 30.5215 106.25 31.4462 106.236 32.3952C106.236 35.0757 104.102 36.8958 100.84 36.8958H93.4851V36.02C93.485 35.9829 93.4993 35.9472 93.5248 35.9203C93.5503 35.8934 93.5852 35.8773 93.6223 35.8753L95.0551 35.7535C95.0922 35.7525 95.1286 35.7442 95.1624 35.7292C95.1963 35.7141 95.2268 35.6925 95.2523 35.6656C95.2778 35.6387 95.2977 35.6071 95.311 35.5725C95.3242 35.538 95.3305 35.5011 95.3295 35.4641V22.1908C95.3296 22.1166 95.3012 22.0452 95.2501 21.9914C95.1991 21.9375 95.1293 21.9053 95.0551 21.9014L93.6223 21.7795C93.6036 21.7796 93.5851 21.7758 93.568 21.7684C93.5508 21.7611 93.5353 21.7503 93.5225 21.7367C93.5096 21.7232 93.4997 21.7072 93.4933 21.6897C93.4868 21.6721 93.484 21.6535 93.4851 21.6349V20.7667H100.466ZM96.9757 22.1908V27.7651H100.497C102.532 27.7651 103.774 26.6761 103.774 24.917C103.774 23.1579 102.539 22.0537 100.497 22.0537H98.4467L96.9757 22.1908ZM96.9757 35.4717L98.4467 35.586H100.809C103.096 35.586 104.567 34.3371 104.567 32.3266C104.567 30.3162 103.134 29.0749 100.809 29.0749H96.9986L96.9757 35.4717Z" fill="#726B6B"/>
<path d="M117.02 29.1207V35.5251C117.019 35.5621 117.025 35.5989 117.039 35.6335C117.052 35.6681 117.072 35.6997 117.097 35.7266C117.123 35.7534 117.153 35.775 117.187 35.7901C117.221 35.8052 117.257 35.8135 117.295 35.8144L118.819 35.9439V36.8958H115.839C115.802 36.8959 115.766 36.8817 115.739 36.8562C115.712 36.8307 115.696 36.7958 115.694 36.7587L115.633 35.4413C115.151 35.9846 114.556 36.4166 113.89 36.7072C113.224 36.9979 112.503 37.1402 111.777 37.1243C109.582 37.1243 108.149 35.8373 108.149 34.0173C108.149 32.1972 109.422 31.5042 111.959 30.8189L115.496 29.867V29.1054C115.496 26.9656 114.254 26.265 112.775 26.2726C111.832 26.2921 110.908 26.5348 110.077 26.9808C110.035 26.9993 110 27.029 109.974 27.0667C109.949 27.1044 109.934 27.1485 109.932 27.194L109.787 28.9684H108.941V26.3868C108.941 26.3679 108.945 26.3491 108.953 26.3319C108.961 26.3147 108.972 26.2996 108.987 26.2878C110.179 25.5799 111.534 25.1917 112.92 25.1607C115.084 25.1455 117.02 26.2269 117.02 29.1207ZM112.341 31.687C110.412 32.2048 109.673 32.6389 109.673 33.8954C109.673 35.1519 110.656 35.9972 112.249 35.9972C112.866 36.0215 113.48 35.8956 114.038 35.6303C114.595 35.365 115.08 34.9682 115.45 34.4742L115.526 34.3676V30.8341L112.341 31.687Z" fill="#726B6B"/>
<path d="M129.588 25.1531C131.623 25.1531 133.101 26.3106 133.101 28.915V35.5174C133.099 35.5917 133.126 35.6639 133.175 35.7192C133.225 35.7745 133.294 35.8086 133.368 35.8144L134.961 35.9439V36.8958H131.752C131.732 36.8969 131.712 36.8937 131.693 36.8864C131.674 36.8791 131.657 36.868 131.642 36.8536C131.628 36.8392 131.617 36.822 131.609 36.803C131.602 36.784 131.599 36.7637 131.6 36.7435V29.1282C131.6 27.0417 130.533 26.2344 129.009 26.2421C127.427 26.3429 125.902 26.8691 124.596 27.7651V35.5174C124.595 35.5544 124.601 35.5913 124.614 35.6258C124.628 35.6604 124.648 35.692 124.673 35.7189C124.699 35.7458 124.729 35.7674 124.763 35.7824C124.797 35.7975 124.833 35.8058 124.87 35.8068L126.494 35.9439V36.8958H121.433V36.0733C121.433 36.0362 121.447 36.0005 121.473 35.9736C121.498 35.9467 121.533 35.9306 121.57 35.9286L122.835 35.8144C122.872 35.8134 122.908 35.8051 122.942 35.79C122.975 35.7748 123.005 35.7531 123.03 35.7261C123.055 35.6991 123.074 35.6674 123.086 35.6329C123.099 35.5983 123.104 35.5616 123.102 35.525V26.699C123.104 26.6607 123.098 26.6224 123.085 26.5865C123.072 26.5505 123.051 26.5176 123.025 26.4898C122.999 26.462 122.967 26.4399 122.932 26.4248C122.896 26.4097 122.858 26.4019 122.82 26.402L121.433 26.3258V25.4044L124.436 25.2521C124.457 25.2498 124.478 25.2522 124.498 25.2589C124.518 25.2657 124.536 25.2767 124.551 25.2912C124.566 25.3057 124.578 25.3233 124.586 25.3428C124.594 25.3624 124.597 25.3834 124.596 25.4044V26.9274C126.072 25.9076 127.797 25.3075 129.588 25.1912V25.1531Z" fill="#726B6B"/>
<path d="M140.723 19.6168C140.745 19.6146 140.767 19.6171 140.788 19.6243C140.809 19.6314 140.828 19.643 140.844 19.6582C140.86 19.6734 140.872 19.6918 140.88 19.7123C140.888 19.7328 140.892 19.7548 140.891 19.7767V30.9407L145.86 26.798C145.899 26.7743 145.928 26.7384 145.944 26.696C145.961 26.6536 145.962 26.6071 145.949 26.5636C145.936 26.5202 145.909 26.4823 145.872 26.4558C145.836 26.4293 145.791 26.4157 145.745 26.4172L144.709 26.3334C144.672 26.3315 144.637 26.3154 144.611 26.2885C144.586 26.2615 144.572 26.2258 144.572 26.1888V25.3739H149.373V26.3258L147.925 26.4553L143.855 29.7908L148.428 35.7383C148.443 35.7598 148.462 35.7777 148.484 35.7909C148.507 35.8041 148.532 35.8121 148.558 35.8144L150.029 35.9363V36.8958H147.506C147.474 36.8946 147.443 36.8857 147.415 36.8698C147.387 36.8539 147.363 36.8314 147.346 36.8044L142.887 30.5675L140.898 32.1972V35.525C140.896 35.5993 140.923 35.6715 140.972 35.7268C141.022 35.7821 141.091 35.8162 141.165 35.822L142.689 35.9439V36.8958H137.819V36.0733C137.819 36.0362 137.833 36.0005 137.859 35.9736C137.884 35.9467 137.919 35.9306 137.956 35.9286L139.161 35.822C139.234 35.8181 139.303 35.7856 139.353 35.7316C139.403 35.6775 139.429 35.6061 139.427 35.5326V21.0637C139.427 20.9875 139.398 20.9142 139.346 20.8589C139.293 20.8036 139.222 20.7706 139.145 20.7667L137.766 20.6982V19.7691L140.723 19.6168Z" fill="#726B6B"/>
<path d="M30.3791 3.47254C30.0667 1.27936 28.7177 1.9495 28.9159 1.18798C28.9845 0.951903 28.7329 0 27.3305 0H-6.10352e-05V15.8778C0.525973 15.948 1.06064 15.8465 1.52423 15.5884C2.37784 14.5603 3.14766 13.2048 4.52715 12.9307C4.733 12.8627 4.9523 12.8459 5.16611 12.8817C5.37993 12.9176 5.58179 13.0049 5.75419 13.1363C5.60938 13.4561 5.19021 13.4104 4.90059 13.517C3.92284 13.7571 3.05519 14.3207 2.43887 15.1162C2.41919 15.1607 2.41369 15.2102 2.42324 15.2579C2.43279 15.3056 2.45688 15.3492 2.49218 15.3828C2.59585 15.3884 2.69961 15.3729 2.79706 15.3371C3.26197 15.002 3.70401 14.5755 4.32135 14.6517C4.34481 14.6587 4.36635 14.6709 4.38434 14.6875C4.40232 14.704 4.41625 14.7245 4.42509 14.7473C4.43392 14.7701 4.43745 14.7946 4.43532 14.819C4.43319 14.8433 4.42546 14.8669 4.4128 14.8878C3.99902 15.2462 3.52747 15.5321 3.01811 15.7331C2.39315 16.2357 0.670703 16.6545 0.457302 17.4922C0.748862 17.5501 1.04435 17.5857 1.34133 17.5988C2.1492 17.6521 2.36262 16.7078 2.97233 16.3042C3.2086 16.1519 3.50588 15.9463 3.78026 16.091C3.78026 16.2204 3.71166 16.289 3.68117 16.3956C2.91902 17.1571 2.05775 17.6064 1.34133 18.3755C1.12793 18.6192 0.175263 18.8858 0.0304547 19.1371V22.0537C0.881172 20.9224 1.9518 19.9744 3.17813 19.2665C3.29245 19.2665 3.47537 19.1904 3.5592 19.3198C3.64304 19.4493 3.5592 19.7234 3.5592 19.9062C3.12478 20.6677 2.49981 21.3455 2.11873 22.1222C2.08465 21.7786 2.16505 21.4333 2.34741 21.1399C2.34741 21.079 2.40839 20.9571 2.34741 20.919C2.01969 20.919 1.86724 21.2846 1.75292 21.5054C1.3566 22.4878 0.228606 23.493 0.0228257 24.5515V38.0457H8.65039C9.19166 37.593 9.66178 37.0616 10.0451 36.4693C10.4262 35.9363 10.5252 35.1976 11.0054 34.7407C11.0816 34.7407 11.135 34.6798 11.2112 34.7407C11.3116 35.0274 11.3485 35.3324 11.3196 35.6348C11.2906 35.9372 11.1964 36.2297 11.0435 36.4922C10.9063 36.8349 10.6014 37.1014 10.5862 37.505C10.5862 37.604 10.8225 37.6116 10.9368 37.505C11.8133 36.7816 11.9581 35.5707 12.2172 34.4589C12.2172 34.4132 12.2172 34.299 12.3468 34.3066C12.4611 34.4361 12.4154 34.6721 12.3468 34.8397C12.2782 35.0072 12.2249 35.1443 12.263 35.289C12.6898 35.4641 12.7278 34.8397 12.9031 34.5808C12.9641 34.5808 13.0403 34.6264 13.0632 34.7102C13.0834 34.9814 13.0411 35.2536 12.9393 35.5058C12.8376 35.758 12.6791 35.9834 12.4763 36.1647C12.3391 36.3018 11.9733 36.3856 12.0495 36.614C12.1258 36.8425 12.4001 36.7587 12.5677 36.7206C12.5677 36.7206 12.6363 36.7739 12.5677 36.8729C12.2735 37.2977 11.9164 37.6751 11.5084 37.9924H13.1242C13.9989 37.4341 14.7721 36.731 15.4106 35.9134L15.5097 35.8677C15.9441 35.2509 16.348 34.6264 16.7672 34.002C17.0028 33.6753 17.1713 33.3052 17.2629 32.9131C17.3545 32.521 17.3674 32.1146 17.3008 31.7174C17.1026 31.2453 16.5385 31.4357 16.188 31.4585C15.9832 31.3737 15.7989 31.2465 15.6469 31.0854C15.563 30.9559 15.6469 30.7427 15.4639 30.6589C15.0753 30.5447 14.7704 30.9026 14.4884 31.1768C14.3817 31.2377 14.2445 31.3519 14.1378 31.2681C14.1378 30.5066 14.839 30.0268 14.9685 29.311C14.9685 29.1739 14.839 29.113 14.7323 29.0216C14.1988 29.0216 13.9702 29.5547 13.5738 29.8517H13.4062C13.359 29.7924 13.3256 29.7234 13.3085 29.6496C13.2914 29.5759 13.2909 29.4992 13.3071 29.4252C13.4175 28.9408 13.6541 28.4942 13.993 28.1307C15.1743 26.2421 17.8037 26.2573 17.8037 26.2573C20.2578 26.2573 21.9117 27.8413 22.3157 27.8413C22.426 27.8077 22.5202 27.735 22.5805 27.6368C22.6409 27.5386 22.6633 27.4217 22.6434 27.3082C22.6434 26.9655 22.4757 26.5924 22.2395 26.5467C22.1328 26.5467 22.4071 26.8513 21.8431 26.7218C19.6634 26.2345 18.1162 24.7571 18.2534 23.4016C18.3906 22.0461 18.1086 21.4369 20.6084 20.3555C20.9819 20.1956 21.5154 20.1651 21.3706 19.2132C21.3706 19.2132 21.2944 18.9238 21.0886 18.9238C21.059 18.9218 21.0292 18.9257 21.0011 18.9354C20.973 18.9451 20.9472 18.9604 20.9251 18.9803C20.9031 19.0002 20.8853 19.0243 20.8728 19.0513C20.8603 19.0782 20.8532 19.1074 20.8523 19.1371C20.8523 19.1371 20.9819 19.3731 20.6466 19.3731C20.3112 19.3731 20.4865 18.9848 19.6481 18.9848C19.3394 18.9642 19.03 19.011 18.7412 19.1218C18.4205 19.2429 18.077 19.2923 17.7351 19.2665C17.4039 19.2853 17.0728 19.228 16.7672 19.099C16.458 18.9964 16.1319 18.9551 15.8069 18.9772C14.9914 18.9772 15.121 19.3655 14.8238 19.3655C14.6561 19.3655 14.6028 19.2437 14.6409 19.0533C14.679 18.8629 14.778 18.8553 14.275 18.505C14.1556 18.4037 14.0741 18.265 14.0437 18.1116C14.0132 17.9581 14.0356 17.7988 14.1073 17.6597C14.405 17.1794 14.5996 16.6427 14.6789 16.0834C14.778 15.4437 13.6272 14.111 13.4138 13.7074C13.0404 13.0144 13.4138 12.7403 12.0267 12.588C11.5893 12.5874 11.1656 12.4353 10.8279 12.1576C10.4902 11.8799 10.2593 11.4937 10.1747 11.0649C10.1747 10.9812 10.1747 10.8365 10.4262 10.9507C10.8911 11.202 11.2721 12.1006 12.0114 12.1006C12.7507 12.1006 13.5357 12.2529 13.7186 12.5499C14.0463 13.22 14.4046 13.3571 14.5951 13.3723C15.121 13.418 14.4274 12.2301 14.5951 12.0168C14.7628 11.8036 14.9 11.9102 15.0829 11.9483C15.5815 12.0554 16.0313 12.3229 16.3633 12.7098C16.4243 12.8164 16.8129 12.7631 16.8663 12.5347C17.133 11.4914 17.4684 11.5295 17.9562 11.6056C18.444 11.6818 18.4668 11.6818 18.4668 12.2377C18.4567 12.3097 18.4657 12.3831 18.4926 12.4507C18.5196 12.5182 18.5637 12.5776 18.6206 12.6229C18.6776 12.6682 18.7453 12.698 18.8172 12.7092C18.8891 12.7205 18.9628 12.7128 19.0308 12.687C19.4729 12.5804 19.7015 11.6818 20.1892 11.6437C20.3036 11.6437 20.3722 11.6437 20.4027 11.7503C20.4331 11.8569 20.0292 12.2224 20.1512 12.5118C20.2731 12.8012 20.3722 12.39 20.517 12.4661C20.8752 12.6489 20.6542 13.4333 21.0048 13.418C21.3554 13.4028 21.3706 13.0753 21.5993 12.7936C21.7827 12.5423 22.0554 12.3707 22.3614 12.3138C23.142 12.1189 23.9064 11.8643 24.6479 11.5523C26.2865 10.6385 25.2652 8.2016 23.939 6.64048C23.6113 6.25972 24.0915 5.94749 24.503 6.3511C25.2652 7.1507 25.6843 8.31583 26.2864 8.31583C27.3534 8.1747 28.365 7.7573 29.2208 7.10501C29.6727 6.63156 30.0128 6.06293 30.2159 5.44091C30.419 4.81889 30.48 4.1593 30.3944 3.51062M11.1274 22.9142C11.6914 21.8709 13.8558 20.1727 14.9914 20.5002C15.606 20.6545 16.1552 21.0006 16.5595 21.4881C16.9638 21.9756 17.2021 22.5792 17.2397 23.2112C17.4455 25.5872 14.4503 27.0188 14.2902 26.897C14.1302 26.7751 14.2902 26.6914 14.2902 26.5695C14.2828 26.5339 14.2623 26.5023 14.2326 26.4811C14.203 26.4599 14.1664 26.4507 14.1302 26.4553C13.4747 26.4934 13.4366 27.3768 12.9946 27.7727C12.865 27.7727 12.7888 27.6661 12.6821 27.6052C12.4458 27.2244 13.0708 27.2397 13.1546 26.9427C13.1892 26.8527 13.201 26.7556 13.189 26.66C13.1771 26.5643 13.1417 26.4731 13.0861 26.3944C13.0147 26.3406 12.9278 26.3116 12.8384 26.3116C12.749 26.3116 12.662 26.3406 12.5906 26.3944C12.3467 26.5695 12.3391 27.0493 12.019 26.9122C11.9611 26.8388 11.9191 26.7542 11.8955 26.6638C11.8719 26.5734 11.8673 26.4791 11.8819 26.3868C12.2096 25.9832 12.8117 26.0593 12.8726 25.4501C12.9107 25.077 13.2004 25.1226 13.3986 25.0465C13.5967 24.9703 13.612 24.719 13.6805 24.5134C13.833 24.0794 14.2521 24.1631 14.2902 23.9194C14.3012 23.8529 14.2918 23.7845 14.2632 23.7234C14.2347 23.6622 14.1883 23.6111 14.1302 23.5768C14.0421 23.5591 13.9509 23.563 13.8647 23.5882C13.7784 23.6134 13.6995 23.6591 13.6348 23.7214C13.5205 23.8052 13.5814 24.0184 13.4214 24.1022C13.2441 24.1823 13.057 24.2386 12.865 24.2697C12.5754 24.3687 12.5678 24.6581 12.5068 24.9551C12.5068 25.1074 12.1715 25.0541 12.0419 25.0846C11.7599 25.1607 11.6837 25.4653 11.577 25.7166C11.577 25.7166 11.577 25.7776 11.5236 25.7776C11.4703 25.7776 11.295 25.6633 11.2264 25.5872C11.1865 25.5568 11.1591 25.513 11.1493 25.464C11.1395 25.4149 11.148 25.3639 11.1731 25.3206C11.2193 25.2549 11.2865 25.2066 11.3636 25.1836C11.4546 25.1537 11.5313 25.0914 11.5792 25.0085C11.627 24.9255 11.6425 24.8279 11.6227 24.7343C11.5312 24.3916 11.9428 24.2697 11.9581 24.1403C11.9647 24.0811 11.9547 24.0212 11.9292 23.9674C11.9036 23.9135 11.8634 23.8679 11.8132 23.8357C11.5541 23.6757 11.3484 23.9804 11.1045 24.0717C11.0283 24.0717 10.8987 23.9804 10.8682 23.8814C10.869 23.5371 10.9583 23.1989 11.1274 22.899M8.79515 1.30982C9.99546 1.56939 11.0571 2.26387 11.7752 3.25932C12.3468 4.14268 12.5373 5.30782 13.5891 5.87896C13.7231 6.00933 13.8845 6.10819 14.0616 6.16834C13.8295 6.15331 13.6033 6.08837 13.3986 5.97795C13.3071 5.97795 13.2233 5.81803 13.1166 5.90942C13.0099 6.0008 13.0784 6.01603 13.0708 6.07695C13.0632 6.13788 13.2309 6.1988 13.3071 6.28256C13.2555 6.33059 13.2095 6.38423 13.1699 6.44248C12.0876 6.01603 11.9809 4.82044 11.4169 3.998C11.176 3.48162 10.8186 3.02806 10.3728 2.67294C10.333 2.66968 10.2933 2.67894 10.2592 2.69943C10.225 2.71992 10.198 2.75061 10.1822 2.78717C10.2813 3.0004 10.4947 3.16032 10.6091 3.35832C10.9587 3.84602 11.1406 4.43389 11.1274 5.03367C11.0588 5.09459 11.1273 5.20882 10.9901 5.22405C10.853 5.23928 10.7158 5.14789 10.6396 5.03367C10.0756 4.27214 10.0603 3.2517 9.29057 2.62725C9.29057 2.62725 9.25241 2.62725 9.23717 2.62725C8.98566 2.84048 9.23717 3.1984 9.23717 3.49539V3.70862C8.89042 2.88317 8.27205 2.20077 7.48428 1.77435C6.963 1.68729 6.42889 1.71656 5.92026 1.86007C5.41164 2.00358 4.94112 2.25777 4.5424 2.60441C4.5424 2.60441 4.4357 2.60441 4.44332 2.53587C4.49667 2.10942 5.3274 0.540681 8.81041 1.33267M8.22354 6.45771C7.00411 6.07695 5.9371 5.3002 4.79388 4.81283C4.5881 4.76713 4.32897 4.66052 4.13081 4.81283C3.93266 4.96513 4.30609 5.06413 4.39755 5.2012C3.86593 5.12307 3.32309 5.19153 2.82757 5.3992C2.72849 5.3992 2.58365 5.3992 2.50744 5.34589C2.50744 5.06413 2.75899 4.82044 2.93428 4.58437C3.17902 4.35459 3.46819 4.17728 3.78407 4.06334C4.09995 3.9494 4.43579 3.90125 4.77099 3.92184C5.51084 3.94218 6.22969 4.17193 6.84401 4.58437C7.82718 5.17074 8.63511 6.10741 9.56493 6.75471C9.08706 6.7108 8.61767 6.60059 8.17023 6.42725M15.3039 9.59519C15.403 10.0902 15.0752 11.2248 14.8771 11.2325C14.5417 11.2325 14.5265 10.8822 14.4503 10.3948C14.3741 9.90741 14.7933 9.29058 14.3436 9.13066C13.711 9.13066 13.993 10.1816 13.4824 10.1816C13.2156 10.1816 12.9336 9.89218 12.583 9.79319C10.8148 9.29819 10.1061 10.7603 9.7631 10.6918C9.14576 10.5547 9.64115 10.1663 9.7631 9.96834C10.4376 9.31171 11.2915 8.86922 12.2172 8.69659C12.9793 8.53667 13.4138 8.07976 14.4427 8.07976C15.4945 8.23206 15.2048 9.15351 15.2963 9.6028M24.4421 9.39719C24.5326 9.4358 24.6067 9.50504 24.6513 9.59276C24.6959 9.68049 24.7081 9.7811 24.6859 9.87695C24.6326 10.1359 24.4573 9.96072 24.2515 9.87695C23.1388 9.58757 22.8339 9.67134 22.1861 10.0597C21.744 10.3263 21.6373 9.85411 21.4239 9.52665C21.3553 9.40481 21.1648 9.15351 21.0124 9.23727C20.86 9.32104 20.9438 9.76272 21.0124 9.87695C21.0418 10.0478 21.0223 10.2235 20.9562 10.3838C20.8902 10.5441 20.7802 10.6825 20.639 10.7832C20.3798 10.7832 20.3569 10.6461 20.235 10.4329C19.8615 9.78557 19.7396 8.44529 20.4788 8.2016C20.8614 8.10316 21.2619 8.09669 21.6474 8.18273C22.0329 8.26877 22.3925 8.44487 22.6967 8.69659C23.2398 8.99274 23.8187 9.21796 24.4192 9.36673M24.4192 2.78717C24.6557 2.42929 24.9975 2.15358 25.3975 1.99808C25.7974 1.84258 26.236 1.81496 26.6523 1.91904C27.004 2.01595 27.333 2.18161 27.6202 2.40641C27.6202 2.62725 27.9098 2.64248 27.9403 2.85571C26.919 2.48256 25.4786 2.15511 24.4573 2.75671M27.3458 4.87375C26.8956 4.83956 26.4521 4.74478 26.0273 4.59198C26.6446 4.27976 27.6735 3.602 28.2147 4.47775C28.0851 4.84329 27.6659 4.82044 27.3458 4.87375Z" fill="#1D1D1B"/>
<path d="M160.005 24.2545V24.9094H159.815V24.5591C159.815 24.545 159.809 24.5314 159.799 24.5214C159.789 24.5114 159.776 24.5058 159.761 24.5058H158.854V27.1483C158.854 27.1632 158.86 27.1777 158.87 27.1889C158.879 27.2001 158.893 27.2074 158.908 27.2092H159.22V27.4072H158.176V27.2625H158.466C158.481 27.2607 158.494 27.2534 158.504 27.2422C158.514 27.231 158.519 27.2165 158.519 27.2016V24.5058H157.612C157.598 24.5058 157.584 24.5114 157.574 24.5214C157.564 24.5314 157.559 24.545 157.559 24.5591V24.9094H157.368V24.285L160.005 24.2545Z" fill="#1D1D1B"/>
<path d="M163.923 24.4754C163.914 24.475 163.906 24.4767 163.898 24.4803C163.89 24.4838 163.884 24.4892 163.878 24.4959C163.873 24.5026 163.87 24.5105 163.868 24.5188C163.866 24.5272 163.867 24.5358 163.869 24.5439L164.228 27.2092H164.532V27.4072H163.458V27.2321H163.839C163.847 27.2311 163.855 27.2286 163.862 27.2246C163.869 27.2207 163.875 27.2153 163.88 27.209C163.885 27.2026 163.889 27.1953 163.891 27.1875C163.893 27.1797 163.893 27.1715 163.892 27.1635L163.58 24.7876L162.581 27.4605H162.368L161.354 24.7495L161.027 27.194H161.476V27.392H160.463V27.2625H160.714C160.714 27.2625 160.767 27.2625 160.767 27.2168L161.118 24.5972C161.12 24.5891 161.121 24.5805 161.119 24.5721C161.118 24.5638 161.114 24.5559 161.109 24.5492C161.104 24.5425 161.097 24.5371 161.089 24.5336C161.082 24.53 161.073 24.5283 161.065 24.5287H160.806V24.2545H161.568L162.566 26.8894L163.511 24.2545H164.22V24.4525L163.923 24.4754Z" fill="#1D1D1B"/>
<path d="M84.7203 0.0228271H83.6686V37.8324H84.7203V0.0228271Z" fill="#4BAD33"/>
<path d="M44.2046 28.1763H39.9784L33.9968 19.6559V28.1763H30.4859V9.89978H33.9968V17.6397L40.3685 9.89978H43.6844L37.1827 17.9649L44.2046 28.1763Z" fill="#1D1D1B"/>
<path d="M53.7661 28.1763C47.5996 28.1763 44.2046 24.8992 44.2046 18.975C44.2046 16.076 44.9667 13.8702 46.4217 12.2946C47.8768 10.7191 50.0246 9.89978 52.5882 9.89978C53.4889 9.89978 55.8447 10.2149 57.5075 10.467L58.0618 10.53V13.8072L55.1518 12.1686C54.5975 11.9165 53.4889 11.6014 52.5882 11.6014H52.5189C48.7775 11.6014 48.2925 15.5088 48.2232 18.975C48.1539 21.8741 48.8468 24.0168 50.0939 25.2143C50.9253 25.9705 52.0339 26.3487 53.4197 26.3487C55.2211 26.3487 56.5375 25.7815 57.2997 25.2773L58.6854 24.395L58.2004 27.357L57.854 27.4831C57.2304 27.8612 55.3597 28.1763 53.7661 28.1763Z" fill="#1D1D1B"/>
<path d="M67.6325 28.1763H61.7339V9.89978H67.2068C68.8487 9.89978 69.9432 10.1599 70.7946 10.7453C71.8892 11.4608 72.3756 12.6965 72.3756 14.3876C72.3756 15.6884 72.0108 16.7291 71.3419 17.4445L70.9162 17.8998L71.4027 18.2901C72.5581 19.2007 73.1662 20.7616 73.1662 22.7129C73.1662 24.4039 72.5581 25.8349 71.4027 26.8105C70.4297 27.721 69.0919 28.1763 67.6325 28.1763ZM64.9569 26.2901H66.5379C69.0311 26.2901 69.8216 25.4446 69.8216 22.5828C69.8216 20.6316 68.423 19.786 67.0244 19.786H64.9569V26.2901ZM64.9569 16.9893H66.1731C66.2339 16.9893 66.2947 16.9893 66.3555 16.9893C66.4163 16.9893 66.5379 16.9893 66.5987 16.9893C66.842 16.9893 67.6325 16.9893 68.1798 16.599C68.7271 16.2088 69.0311 15.5584 69.0311 14.4527C69.0311 11.9161 67.7541 11.7209 66.3555 11.7209H65.0177V16.9893H64.9569Z" fill="#1D1D1B"/>
</g>
<defs>
<clipPath id="clip0_142_29">
<rect width="221" height="38" fill="white"/>
</clipPath>
</defs>
</svg>
