<svg width="53" height="53" viewBox="0 0 53 53" fill="none" xmlns="http://www.w3.org/2000/svg">
<g clip-path="url(#clip0_4_385)">
<path d="M42.5228 19.0605C44.1251 18.6916 45.7275 18.3227 47.3298 17.8308C51.274 25.455 50.9042 38.1208 41.5368 46.6058C32.0461 55.2137 17.5019 55.0907 8.25769 46.6058C-1.233 37.8749 -2.71207 23.7334 4.92979 13.4039C12.5716 3.07444 26.0065 1.22989 35.2507 5.77977C34.881 7.37838 34.5112 8.97699 34.0182 10.5756C28.4717 7.87026 22.8019 7.50135 17.1321 9.83778C12.8182 11.5594 9.61351 14.5106 7.3949 18.5686C3.08095 26.4387 4.56002 36.3993 11.4623 42.6707C18.1182 48.8192 28.2251 49.557 35.867 44.5153C43.0158 39.9654 47.5763 29.267 42.5228 19.0605Z" fill="white"/>
<path d="M38.2091 21.8888C40.9207 27.1765 40.0579 35.2925 33.7719 40.0883C27.8556 44.5152 19.2277 44.0234 13.9277 38.3667C8.99748 33.079 8.3812 24.7171 13.4347 18.6916C18.2417 12.912 26.3766 12.2971 31.1835 14.8795C30.5672 15.4943 29.951 15.9862 29.4579 16.4781C29.0882 16.847 28.5952 17.2159 28.3486 17.7078C27.7324 18.4456 27.1161 18.5686 26.13 18.4456C22.5556 17.9537 19.4742 19.1834 17.2556 22.0117C12.4486 27.9143 15.7766 36.7681 23.2952 37.9978C28.9649 38.9816 33.7719 35.0466 34.6347 29.8818C34.8812 28.6521 34.6347 27.4224 34.6347 26.3157C34.6347 26.0698 34.6347 25.8238 34.7579 25.7008C35.8673 24.3482 36.9766 23.1185 38.2091 21.8888Z" fill="white"/>
<path d="M45.481 0C45.481 0.491879 45.481 0.737819 45.481 0.983759C45.481 2.95128 45.481 5.04176 45.481 7.00928C45.481 7.50116 45.6042 7.62413 46.0972 7.62413C48.1926 7.62413 50.1647 7.62413 52.26 7.62413C52.5065 7.62413 52.6298 7.62413 53.1228 7.62413C52.8763 7.87007 52.753 7.99304 52.6298 8.11601C50.6577 10.0835 48.6856 12.051 46.5903 14.0186C46.3437 14.2645 45.974 14.5104 45.6042 14.5104C43.8786 15.0023 42.153 15.3712 40.4275 15.8631C40.181 15.9861 39.9344 16.109 39.6879 16.232C36.36 19.4292 33.1554 22.7494 29.8275 25.9466C29.581 26.4385 29.581 26.6845 29.581 27.0534C30.074 29.0209 29.4577 30.7425 27.8554 32.0951C26.2531 33.3248 24.5275 33.5708 22.6786 32.71C20.8298 31.8492 19.8438 30.2506 19.8438 28.2831C19.8438 25.0858 22.6786 22.7494 25.8833 23.4872C26.3763 23.6102 26.7461 23.4872 27.1158 23.1183C29.9507 20.29 32.7856 17.3387 35.7437 14.6334C36.7298 13.6497 37.3461 12.6659 37.5926 11.3132C37.8391 10.2065 38.2089 9.09977 38.3321 7.99304C38.4554 7.25522 38.8251 6.64037 39.4414 6.14849C41.2903 4.42691 43.0158 2.58237 44.8647 0.737819C44.9879 0.491879 45.1112 0.24594 45.481 0Z" fill="#4BAD33"/>
</g>
<defs>
<clipPath id="clip0_4_385">
<rect width="53" height="53" fill="white"/>
</clipPath>
</defs>
</svg>
