<svg width="62" height="61" viewBox="0 0 62 61" fill="none" xmlns="http://www.w3.org/2000/svg">
<g clip-path="url(#clip0_4_397)">
<path d="M56.0647 33.3153C47.7876 42.5435 39.3543 51.7718 31.0772 61C22.8002 51.7718 14.3669 42.7 6.08984 33.3153C6.24602 33.1589 6.40219 32.8461 6.55836 32.6897C10.4626 27.841 14.2108 22.9923 18.115 18.1435C18.2712 17.8307 18.7397 17.6743 19.0521 17.6743C26.8606 17.6743 34.6692 17.6743 42.4778 17.6743C42.7901 17.6743 43.2586 17.8307 43.4148 17.9871C47.6314 23.1487 51.848 28.1538 56.0647 33.3153ZM31.0772 52.8666C32.9513 46.923 34.9815 41.2923 36.8556 35.5051C32.9513 35.5051 29.2032 35.5051 25.2989 35.5051C27.173 41.2923 29.047 47.0794 31.0772 52.8666ZM36.6994 30.9692C36.6994 30.8128 36.6994 30.8128 36.6994 30.6564C35.7624 27.9974 34.9815 25.182 34.0445 22.523C34.0445 22.3666 33.576 22.2102 33.4198 22.0538C32.0143 22.0538 30.4526 22.0538 29.047 22.0538C28.5785 22.0538 28.2662 22.2102 28.11 22.6794C27.3291 25.182 26.3921 27.6846 25.6113 30.1871C25.6113 30.3435 25.4551 30.6564 25.4551 30.9692C29.2032 30.9692 32.9513 30.9692 36.6994 30.9692ZM13.5861 31.1256C15.9286 31.1256 17.9589 31.1256 19.9891 31.1256C20.4576 31.1256 20.7699 30.9692 20.9261 30.5C21.707 27.9974 22.644 25.4948 23.4249 22.9923C23.4249 22.8359 23.581 22.6794 23.581 22.3666C22.9563 22.3666 22.3317 22.3666 21.707 22.3666C21.0823 22.2102 20.6138 22.523 20.1453 23.1487C19.0521 24.5564 17.8027 26.1205 16.7095 27.5282C15.6163 28.4666 14.6793 29.7179 13.5861 31.1256ZM38.5735 22.2102C39.5105 25.0256 40.4475 27.841 41.3846 30.6564C41.3846 30.8128 41.6969 30.9692 42.0092 30.9692C42.9463 30.9692 44.0395 30.9692 44.9765 30.9692C46.0697 30.9692 47.1629 30.9692 48.2561 30.9692C48.0999 30.8128 48.0999 30.6564 48.0999 30.6564C45.7574 27.841 43.571 25.182 41.2284 22.3666C41.0722 22.2102 40.916 22.0538 40.7599 22.0538C39.979 22.2102 39.3543 22.2102 38.5735 22.2102ZM41.5407 35.5051C40.2914 39.2589 39.042 43.0128 37.7926 46.7666H37.9488C41.3846 43.0128 44.6642 39.2589 48.2561 35.5051C45.7574 35.5051 43.7271 35.5051 41.5407 35.5051ZM13.8984 35.5051C17.3342 39.4153 20.7699 43.0128 24.2057 46.923C24.2057 46.7666 24.2057 46.7666 24.2057 46.6102C22.9563 43.0128 21.8631 39.4153 20.6138 35.8179C20.6138 35.6615 20.3014 35.5051 20.1453 35.5051C18.2712 35.5051 16.0848 35.5051 13.8984 35.5051Z" fill="white"/>
<path d="M6.71537 8.91504C7.34005 10.3227 7.96474 11.574 8.74559 12.8253C8.74559 13.1381 9.05794 13.4509 9.37028 13.6073C10.6196 14.233 11.869 14.8586 13.2746 15.6407C11.869 16.2663 10.6196 16.892 9.52645 17.5176C9.21411 17.674 8.90176 17.9868 8.74559 18.4561C8.12091 19.7073 7.49622 20.9586 6.71537 22.3663C6.09068 21.115 5.466 19.8638 4.84131 18.6125C4.52897 18.1432 4.21663 17.8304 3.74811 17.5176C2.49874 16.7356 1.40554 16.2663 0 15.4843C1.40554 14.8586 2.65491 14.233 3.90428 13.6073C4.21663 13.4509 4.52897 13.1381 4.68514 12.6689C5.466 11.4176 5.93451 10.1663 6.71537 8.91504Z" fill="#4BAD33"/>
<path d="M48.7256 15.4843C50.1311 14.8586 51.3805 14.233 52.4737 13.6073C52.786 13.4509 53.2546 12.9817 53.4107 12.6689C54.0354 11.4176 54.6601 10.1663 55.2848 8.91504C55.9095 10.1663 56.5342 11.574 57.315 12.8253C57.4712 13.1381 57.7835 13.4509 58.0959 13.6073C59.3452 14.233 60.5946 14.8586 61.844 15.6407C60.4384 16.2663 59.1891 16.892 57.9397 17.5176C57.6273 17.674 57.315 17.9868 57.1588 18.2997C56.5341 19.5509 55.9095 20.8022 55.1286 22.2099C54.5039 20.8022 53.8792 19.5509 53.2545 18.4561C53.0984 18.1432 52.786 17.674 52.3175 17.5176C51.3805 16.892 50.1311 16.2663 48.7256 15.4843Z" fill="#4BAD33"/>
<path d="M24.3622 6.72548C25.6116 6.09984 26.8609 5.4742 28.1103 4.84856C28.5788 4.69215 28.8912 4.22292 29.2035 3.9101C29.8282 2.65881 30.4529 1.40753 31.0775 0.15625C31.7022 1.40753 32.3269 2.65881 32.9516 3.9101C33.2639 4.37933 33.5763 4.69215 34.0448 5.00497C35.138 5.63061 36.3874 6.25625 37.6367 6.88189C36.2312 7.50753 34.9818 8.13317 33.7325 8.91523C33.4201 9.07164 33.1078 9.38446 32.9516 9.69728C32.3269 10.9486 31.7022 12.1998 30.9214 13.6075C30.2967 11.887 29.672 10.6357 29.0473 9.38446C28.8911 9.07164 28.5788 8.75881 28.2665 8.6024C27.0171 7.97676 25.7677 7.35112 24.3622 6.72548Z" fill="#4BAD33"/>
</g>
<defs>
<clipPath id="clip0_4_397">
<rect width="62" height="61" fill="white"/>
</clipPath>
</defs>
</svg>
