<svg width="57" height="46" viewBox="0 0 57 46" fill="none" xmlns="http://www.w3.org/2000/svg">
<g clip-path="url(#clip0_4_390)">
<path d="M28.5655 36.9277C20.4414 36.9277 13.2345 34.3721 6.81379 29.6443C4.45517 27.8554 2.35862 25.9388 0.393103 23.7665C-0.131034 23.1277 -0.131034 22.7443 0.393103 22.2332C4.84828 17.2499 9.95862 13.4165 16.3793 11.1165C21.8828 9.0721 27.5172 8.56098 33.4138 9.32765C42.3241 10.6054 49.6621 14.8221 55.8207 21.211C56.2138 21.5943 56.4759 21.8499 56.869 22.2332C57.2621 22.7443 57.2621 23.1277 56.869 23.6388C51.8897 29.261 45.8621 33.4776 38.5241 35.6499C35.3793 36.4165 31.9724 36.9277 28.5655 36.9277ZM28.4345 35.3943C35.5103 35.3943 41.1448 29.7721 41.1448 22.9999C41.1448 16.2277 35.3793 10.6054 28.4345 10.4777C21.4897 10.4777 15.5931 16.0999 15.5931 22.9999C15.7241 29.7721 21.4897 35.3943 28.4345 35.3943Z" fill="white"/>
<path d="M41.9301 41.9111C41.537 41.7833 41.2749 41.6556 41.0128 41.4C40.2266 40.8889 39.3094 40.25 38.5232 39.7389C38.1301 39.4833 37.868 39.4833 37.6059 39.6111C36.4266 40.1222 35.2473 40.6333 34.068 41.0167C33.6749 41.1444 33.5439 41.2722 33.4128 41.6555C33.2818 42.6778 33.0197 43.8278 32.8887 44.85C32.7577 45.6167 32.4956 45.8722 31.5784 45.8722C29.4818 45.8722 27.2542 45.8722 25.1577 45.8722C24.3715 45.8722 24.1094 45.6167 23.8473 44.85C23.5853 43.8278 23.4542 42.8056 23.3232 41.7833C23.3232 41.4 23.0611 41.2722 22.799 41.1444C21.6197 40.7611 20.4404 40.25 19.3922 39.7389C18.868 39.4833 18.6059 39.6111 18.2128 39.8667C17.4266 40.5055 16.5094 41.0167 15.7232 41.6555C15.068 42.1667 14.6749 42.1667 14.1508 41.5278C12.5784 39.9944 11.137 38.5889 9.56456 37.0555C9.04043 36.5444 9.04043 36.1611 9.43353 35.5222C10.3508 34.1167 10.3508 34.1167 11.9232 34.8833C15.7232 36.8 19.7853 37.95 23.9784 38.5889C29.0887 39.2278 33.937 38.8444 38.9163 37.3111C41.4059 36.5444 43.7646 35.65 45.9921 34.3722C46.5163 34.1167 46.7784 34.2444 47.0404 34.6278C48.2197 36.2889 48.2197 36.2889 46.7784 37.6944C45.468 38.9722 44.1577 40.25 42.8473 41.4C42.5853 41.6556 42.1922 41.7833 41.9301 41.9111Z" fill="#4BAD33"/>
<path d="M48.0903 9.83889C47.5662 10.4778 47.1731 11.1167 46.649 11.7556C46.649 11.8833 46.2559 11.6278 45.9938 11.6278C43.8972 10.7333 41.8007 9.71111 39.7041 9.07222C35.249 7.53889 30.6627 7.02778 25.9455 7.41111C20.7041 7.66667 15.7248 9.07222 11.1386 11.5C10.6145 11.7556 10.2214 11.7556 9.82826 11.2444C8.51792 9.32778 8.91102 9.45556 10.0903 8.30556C11.4007 7.02778 12.711 5.75 14.0214 4.47222C14.6765 3.96111 14.9386 3.83333 15.7248 4.34444C16.6421 4.85556 17.4283 5.49444 18.2145 6.13333C18.6076 6.38889 18.8696 6.38889 19.2627 6.13333C20.4421 5.62222 21.6214 5.23889 22.8007 4.72778C23.0627 4.6 23.3248 4.34444 23.3248 4.08889C23.5869 3.06667 23.7179 2.04444 23.849 1.02222C24.111 0.383333 24.3731 0 25.0283 0C27.2559 0 29.6145 0 31.8421 0C32.4972 0 32.8903 0.383333 33.0214 0.894444C33.1524 1.91667 33.4145 2.93889 33.5455 3.96111C33.5455 4.21667 33.8076 4.47222 34.0696 4.6C35.249 5.11111 36.4283 5.49444 37.6076 6.00556C38.0007 6.13333 38.2627 6.13333 38.6559 5.87778C39.4421 5.23889 40.3593 4.72778 41.1455 4.21667C41.9317 3.83333 42.3248 3.96111 42.98 4.47222C44.4214 5.87778 45.9938 7.41111 47.4352 8.81667C47.6972 9.07222 47.8283 9.45555 48.0903 9.83889Z" fill="#4BAD33"/>
<path d="M39.441 23.1277C39.441 28.8777 34.5927 33.7333 28.5652 33.7333C22.2755 33.7333 17.4272 29.0055 17.5583 22.6166C17.5583 17.1222 22.6686 12.2666 28.5652 12.2666C34.5927 12.2666 39.441 16.9944 39.441 23.1277ZM21.8824 22.9999C21.8824 26.7055 24.7652 29.5166 28.4341 29.3888C31.9721 29.3888 34.9858 26.4499 34.8548 22.9999C34.8548 19.4222 31.841 16.4833 28.1721 16.611C24.7652 16.611 21.8824 19.4222 21.8824 22.9999Z" fill="white"/>
<path d="M28.435 18.3999C31.0557 18.3999 33.2833 20.4443 33.2833 22.9999C33.2833 25.5555 31.0557 27.7277 28.435 27.7277C25.9454 27.7277 23.8488 25.5555 23.7178 22.9999C23.7178 20.4443 25.9454 18.3999 28.435 18.3999Z" fill="#4BAD33"/>
</g>
<defs>
<clipPath id="clip0_4_390">
<rect width="57" height="46" fill="white"/>
</clipPath>
</defs>
</svg>
