<?xml version="1.0" standalone="no"?>
<!DOCTYPE svg PUBLIC "-//W3C//DTD SVG 20010904//EN"
 "http://www.w3.org/TR/2001/REC-SVG-20010904/DTD/svg10.dtd">
<svg version="1.0" xmlns="http://www.w3.org/2000/svg"
 width="260.000000pt" height="260.000000pt" viewBox="0 0 260.000000 260.000000"
 preserveAspectRatio="xMidYMid meet">
<metadata>
Created by potrace 1.14, written by Peter Selinger 2001-2017
</metadata>
<g transform="translate(0.000000,260.000000) scale(0.100000,-0.100000)"
fill="#000000" stroke="none">
<path d="M0 2055 c0 -429 3 -545 13 -545 52 0 89 24 141 89 77 96 145 134 211
117 37 -9 31 -24 -17 -37 -81 -21 -178 -84 -178 -115 0 -20 14 -17 56 11 55
37 100 31 57 -7 -10 -9 -56 -35 -103 -59 -105 -53 -140 -76 -140 -95 0 -10 12
-14 40 -14 36 0 47 6 89 50 29 30 57 50 70 50 17 0 20 -4 14 -15 -11 -18 -180
-154 -222 -177 l-31 -17 0 -97 0 -96 58 59 c67 70 142 123 172 123 19 0 21 -4
16 -27 -6 -23 -92 -153 -101 -153 -2 0 1 14 6 32 5 17 6 34 3 37 -7 6 -8 5
-55 -74 -17 -27 -46 -75 -65 -105 l-34 -54 0 -468 0 -468 300 0 299 0 38 45
c21 24 54 74 73 111 19 37 40 66 45 66 22 -3 16 -80 -9 -131 -30 -57 -19 -76
19 -35 24 26 65 136 65 175 0 10 5 19 11 19 7 0 8 -11 4 -30 -8 -38 9 -40 29
-2 l15 27 1 -39 c0 -32 -6 -45 -36 -73 -35 -32 -35 -34 -15 -40 28 -7 27 -14
-9 -48 -16 -16 -30 -32 -30 -37 0 -4 21 -8 46 -8 79 0 172 83 283 254 49 75
52 83 49 135 l-3 56 -44 6 c-40 5 -63 22 -74 53 -2 7 -20 0 -43 -17 -50 -35
-56 -17 -18 51 26 47 28 82 4 82 -5 0 -24 -13 -42 -30 -17 -16 -35 -30 -39
-30 -15 0 -10 39 10 78 44 83 117 136 220 157 102 22 164 10 298 -58 65 -32
85 -39 95 -29 15 15 -2 68 -21 64 -24 -5 -115 27 -163 57 -26 17 -61 49 -78
72 -26 37 -30 50 -30 108 0 98 19 126 121 181 72 39 84 49 87 74 4 34 -14 58
-24 33 -7 -19 -39 -23 -50 -6 -5 8 -26 9 -68 4 -73 -9 -120 -9 -204 0 -43 5
-67 4 -75 -4 -17 -17 -37 -13 -37 7 0 11 -9 27 -20 37 -11 10 -20 25 -20 34 0
9 9 34 20 56 32 64 27 100 -30 190 -27 44 -50 85 -50 92 0 7 -19 17 -42 23
-24 6 -60 16 -80 21 -38 10 -78 53 -78 83 0 24 10 20 51 -20 30 -29 47 -37 86
-41 55 -5 103 -21 103 -34 0 -15 39 -49 55 -49 13 0 15 9 9 51 l-7 52 29 -7
c16 -4 46 -18 66 -32 21 -13 42 -24 47 -24 5 0 15 16 21 35 8 23 19 37 35 41
37 9 65 -4 65 -30 0 -28 22 -49 42 -41 8 3 25 19 37 35 29 40 53 40 44 0 -5
-25 -3 -29 11 -24 12 5 18 -1 22 -25 8 -39 19 -46 36 -25 31 38 62 64 77 64
41 1 158 51 184 80 50 55 31 153 -54 276 -21 31 -28 49 -21 56 15 15 34 0 89
-72 47 -62 51 -65 89 -63 21 2 71 19 111 38 55 27 78 45 101 80 74 112 64 276
-19 323 -16 10 -29 25 -29 35 0 29 -18 56 -50 72 -25 13 -151 15 -980 15
l-950 0 0 -545z m652 440 c71 -25 141 -94 188 -185 27 -51 53 -86 78 -104 34
-24 36 -38 2 -17 -8 6 -18 7 -23 4 -5 -3 -3 -9 4 -14 7 -4 10 -11 7 -15 -17
-16 -60 32 -103 114 -25 49 -59 101 -75 117 -36 35 -39 21 -5 -25 27 -36 41
-90 31 -116 -6 -15 -8 -15 -25 0 -10 9 -28 42 -40 74 -24 61 -48 95 -62 86 -5
-3 -6 -17 -3 -32 6 -24 3 -22 -24 14 -66 89 -141 108 -237 59 -27 -13 -51 -22
-54 -19 -11 11 17 40 60 62 40 21 54 23 139 19 52 -3 116 -13 142 -22z m1197
-36 c17 -6 36 -20 42 -30 9 -18 8 -19 -18 -12 -15 4 -65 8 -111 8 -45 0 -82 1
-82 3 0 1 15 11 33 22 36 22 88 26 136 9z m-1409 -157 c25 -12 83 -54 130 -94
l85 -71 -40 7 c-22 4 -102 36 -177 72 -119 58 -171 72 -153 45 5 -9 -105 -34
-113 -26 -10 10 34 60 69 78 46 24 138 19 199 -11z m1478 6 c30 -30 -49 -50
-118 -28 -25 7 -25 7 10 23 42 19 91 22 108 5z m-898 -276 c18 -15 22 -29 23
-87 3 -127 -49 -156 -55 -32 -2 34 -7 61 -13 61 -5 -1 -18 -18 -28 -38 -9 -20
-19 -36 -21 -36 -2 0 -25 9 -51 21 -60 26 -103 21 -161 -21 -43 -30 -64 -37
-64 -21 0 45 65 88 200 134 121 41 140 43 170 19z m525 -22 c28 -16 69 -34 92
-40 36 -11 62 -35 50 -47 -2 -2 -27 1 -54 7 -41 9 -58 8 -88 -4 -51 -22 -57
-20 -77 14 -23 41 -42 39 -34 -4 5 -25 2 -39 -12 -56 l-19 -24 -16 25 c-23 35
-30 99 -15 129 25 46 90 46 173 0z m-470 -833 c90 -51 127 -160 86 -253 -25
-56 -50 -85 -106 -124 -53 -36 -90 -48 -82 -26 4 10 1 16 -8 16 -17 0 -29 -13
-56 -58 -17 -29 -22 -32 -36 -21 -14 12 -13 15 6 27 25 17 28 50 5 59 -11 4
-23 -2 -34 -17 -10 -13 -22 -20 -29 -16 -21 13 -11 37 24 57 19 12 35 29 35
38 0 10 11 23 25 29 14 6 25 16 25 22 0 6 12 22 26 35 26 24 25 45 -1 45 -8 0
-19 -9 -24 -19 -6 -10 -24 -24 -41 -29 -20 -8 -30 -18 -30 -31 0 -14 -7 -21
-19 -21 -11 0 -28 -12 -39 -27 -17 -23 -23 -26 -34 -15 -11 11 -10 16 5 26 9
7 17 20 17 27 0 8 7 24 15 35 19 28 9 36 -32 28 -39 -7 -41 2 -14 61 21 47
103 124 163 154 55 27 103 26 153 -2z"/>
</g>
</svg>
